<?xml version="1.0" encoding="utf-8" standalone="no"?>
<!DOCTYPE svg PUBLIC "-//W3C//DTD SVG 1.1//EN"
  "http://www.w3.org/Graphics/SVG/1.1/DTD/svg11.dtd">
<!-- Created with matplotlib (https://matplotlib.org/) -->
<svg height="575.28pt" version="1.1" viewBox="0 0 1128.96 575.28" width="1128.96pt" xmlns="http://www.w3.org/2000/svg" xmlns:xlink="http://www.w3.org/1999/xlink">
 <defs>
  <style type="text/css">
*{stroke-linecap:butt;stroke-linejoin:round;}
  </style>
 </defs>
 <g id="figure_1">
  <g id="patch_1">
   <path d="M 0 575.28 
L 1128.96 575.28 
L 1128.96 0 
L 0 0 
z
" style="fill:#ffffff;"/>
  </g>
  <g id="axes_1">
   <g id="patch_2">
    <path d="M 141.12 511.9992 
L 1016.064 511.9992 
L 1016.064 69.0336 
L 141.12 69.0336 
z
" style="fill:#ffffff;"/>
   </g>
   <g id="matplotlib.axis_1">
    <g id="xtick_1">
     <g id="line2d_1">
      <defs>
       <path d="M 0 0 
L 0 3.5 
" id="meff59ed4e7" style="stroke:#000000;stroke-width:0.8;"/>
      </defs>
      <g>
       <use style="stroke:#000000;stroke-width:0.8;" x="180.890182" xlink:href="#meff59ed4e7" y="511.9992"/>
      </g>
     </g>
     <g id="text_1">
      <!-- 0 -->
      <defs>
       <path d="M 31.78125 66.40625 
Q 24.171875 66.40625 20.328125 58.90625 
Q 16.5 51.421875 16.5 36.375 
Q 16.5 21.390625 20.328125 13.890625 
Q 24.171875 6.390625 31.78125 6.390625 
Q 39.453125 6.390625 43.28125 13.890625 
Q 47.125 21.390625 47.125 36.375 
Q 47.125 51.421875 43.28125 58.90625 
Q 39.453125 66.40625 31.78125 66.40625 
z
M 31.78125 74.21875 
Q 44.046875 74.21875 50.515625 64.515625 
Q 56.984375 54.828125 56.984375 36.375 
Q 56.984375 17.96875 50.515625 8.265625 
Q 44.046875 -1.421875 31.78125 -1.421875 
Q 19.53125 -1.421875 13.0625 8.265625 
Q 6.59375 17.96875 6.59375 36.375 
Q 6.59375 54.828125 13.0625 64.515625 
Q 19.53125 74.21875 31.78125 74.21875 
z
" id="DejaVuSans-48"/>
      </defs>
      <g transform="translate(177.708932 526.597638)scale(0.1 -0.1)">
       <use xlink:href="#DejaVuSans-48"/>
      </g>
     </g>
    </g>
    <g id="xtick_2">
     <g id="line2d_2">
      <g>
       <use style="stroke:#000000;stroke-width:0.8;" x="282.865007" xlink:href="#meff59ed4e7" y="511.9992"/>
      </g>
     </g>
     <g id="text_2">
      <!-- 5 -->
      <defs>
       <path d="M 10.796875 72.90625 
L 49.515625 72.90625 
L 49.515625 64.59375 
L 19.828125 64.59375 
L 19.828125 46.734375 
Q 21.96875 47.46875 24.109375 47.828125 
Q 26.265625 48.1875 28.421875 48.1875 
Q 40.625 48.1875 47.75 41.5 
Q 54.890625 34.8125 54.890625 23.390625 
Q 54.890625 11.625 47.5625 5.09375 
Q 40.234375 -1.421875 26.90625 -1.421875 
Q 22.3125 -1.421875 17.546875 -0.640625 
Q 12.796875 0.140625 7.71875 1.703125 
L 7.71875 11.625 
Q 12.109375 9.234375 16.796875 8.0625 
Q 21.484375 6.890625 26.703125 6.890625 
Q 35.15625 6.890625 40.078125 11.328125 
Q 45.015625 15.765625 45.015625 23.390625 
Q 45.015625 31 40.078125 35.4375 
Q 35.15625 39.890625 26.703125 39.890625 
Q 22.75 39.890625 18.8125 39.015625 
Q 14.890625 38.140625 10.796875 36.28125 
z
" id="DejaVuSans-53"/>
      </defs>
      <g transform="translate(279.683757 526.597638)scale(0.1 -0.1)">
       <use xlink:href="#DejaVuSans-53"/>
      </g>
     </g>
    </g>
    <g id="xtick_3">
     <g id="line2d_3">
      <g>
       <use style="stroke:#000000;stroke-width:0.8;" x="384.839832" xlink:href="#meff59ed4e7" y="511.9992"/>
      </g>
     </g>
     <g id="text_3">
      <!-- 10 -->
      <defs>
       <path d="M 12.40625 8.296875 
L 28.515625 8.296875 
L 28.515625 63.921875 
L 10.984375 60.40625 
L 10.984375 69.390625 
L 28.421875 72.90625 
L 38.28125 72.90625 
L 38.28125 8.296875 
L 54.390625 8.296875 
L 54.390625 0 
L 12.40625 0 
z
" id="DejaVuSans-49"/>
      </defs>
      <g transform="translate(378.477332 526.597638)scale(0.1 -0.1)">
       <use xlink:href="#DejaVuSans-49"/>
       <use x="63.623047" xlink:href="#DejaVuSans-48"/>
      </g>
     </g>
    </g>
    <g id="xtick_4">
     <g id="line2d_4">
      <g>
       <use style="stroke:#000000;stroke-width:0.8;" x="486.814657" xlink:href="#meff59ed4e7" y="511.9992"/>
      </g>
     </g>
     <g id="text_4">
      <!-- 15 -->
      <g transform="translate(480.452157 526.597638)scale(0.1 -0.1)">
       <use xlink:href="#DejaVuSans-49"/>
       <use x="63.623047" xlink:href="#DejaVuSans-53"/>
      </g>
     </g>
    </g>
    <g id="xtick_5">
     <g id="line2d_5">
      <g>
       <use style="stroke:#000000;stroke-width:0.8;" x="588.789483" xlink:href="#meff59ed4e7" y="511.9992"/>
      </g>
     </g>
     <g id="text_5">
      <!-- 20 -->
      <defs>
       <path d="M 19.1875 8.296875 
L 53.609375 8.296875 
L 53.609375 0 
L 7.328125 0 
L 7.328125 8.296875 
Q 12.9375 14.109375 22.625 23.890625 
Q 32.328125 33.6875 34.8125 36.53125 
Q 39.546875 41.84375 41.421875 45.53125 
Q 43.3125 49.21875 43.3125 52.78125 
Q 43.3125 58.59375 39.234375 62.25 
Q 35.15625 65.921875 28.609375 65.921875 
Q 23.96875 65.921875 18.8125 64.3125 
Q 13.671875 62.703125 7.8125 59.421875 
L 7.8125 69.390625 
Q 13.765625 71.78125 18.9375 73 
Q 24.125 74.21875 28.421875 74.21875 
Q 39.75 74.21875 46.484375 68.546875 
Q 53.21875 62.890625 53.21875 53.421875 
Q 53.21875 48.921875 51.53125 44.890625 
Q 49.859375 40.875 45.40625 35.40625 
Q 44.1875 33.984375 37.640625 27.21875 
Q 31.109375 20.453125 19.1875 8.296875 
z
" id="DejaVuSans-50"/>
      </defs>
      <g transform="translate(582.426983 526.597638)scale(0.1 -0.1)">
       <use xlink:href="#DejaVuSans-50"/>
       <use x="63.623047" xlink:href="#DejaVuSans-48"/>
      </g>
     </g>
    </g>
    <g id="xtick_6">
     <g id="line2d_6">
      <g>
       <use style="stroke:#000000;stroke-width:0.8;" x="690.764308" xlink:href="#meff59ed4e7" y="511.9992"/>
      </g>
     </g>
     <g id="text_6">
      <!-- 25 -->
      <g transform="translate(684.401808 526.597638)scale(0.1 -0.1)">
       <use xlink:href="#DejaVuSans-50"/>
       <use x="63.623047" xlink:href="#DejaVuSans-53"/>
      </g>
     </g>
    </g>
    <g id="xtick_7">
     <g id="line2d_7">
      <g>
       <use style="stroke:#000000;stroke-width:0.8;" x="792.739133" xlink:href="#meff59ed4e7" y="511.9992"/>
      </g>
     </g>
     <g id="text_7">
      <!-- 30 -->
      <defs>
       <path d="M 40.578125 39.3125 
Q 47.65625 37.796875 51.625 33 
Q 55.609375 28.21875 55.609375 21.1875 
Q 55.609375 10.40625 48.1875 4.484375 
Q 40.765625 -1.421875 27.09375 -1.421875 
Q 22.515625 -1.421875 17.65625 -0.515625 
Q 12.796875 0.390625 7.625 2.203125 
L 7.625 11.71875 
Q 11.71875 9.328125 16.59375 8.109375 
Q 21.484375 6.890625 26.8125 6.890625 
Q 36.078125 6.890625 40.9375 10.546875 
Q 45.796875 14.203125 45.796875 21.1875 
Q 45.796875 27.640625 41.28125 31.265625 
Q 36.765625 34.90625 28.71875 34.90625 
L 20.21875 34.90625 
L 20.21875 43.015625 
L 29.109375 43.015625 
Q 36.375 43.015625 40.234375 45.921875 
Q 44.09375 48.828125 44.09375 54.296875 
Q 44.09375 59.90625 40.109375 62.90625 
Q 36.140625 65.921875 28.71875 65.921875 
Q 24.65625 65.921875 20.015625 65.03125 
Q 15.375 64.15625 9.8125 62.3125 
L 9.8125 71.09375 
Q 15.4375 72.65625 20.34375 73.4375 
Q 25.25 74.21875 29.59375 74.21875 
Q 40.828125 74.21875 47.359375 69.109375 
Q 53.90625 64.015625 53.90625 55.328125 
Q 53.90625 49.265625 50.4375 45.09375 
Q 46.96875 40.921875 40.578125 39.3125 
z
" id="DejaVuSans-51"/>
      </defs>
      <g transform="translate(786.376633 526.597638)scale(0.1 -0.1)">
       <use xlink:href="#DejaVuSans-51"/>
       <use x="63.623047" xlink:href="#DejaVuSans-48"/>
      </g>
     </g>
    </g>
    <g id="xtick_8">
     <g id="line2d_8">
      <g>
       <use style="stroke:#000000;stroke-width:0.8;" x="894.713958" xlink:href="#meff59ed4e7" y="511.9992"/>
      </g>
     </g>
     <g id="text_8">
      <!-- 35 -->
      <g transform="translate(888.351458 526.597638)scale(0.1 -0.1)">
       <use xlink:href="#DejaVuSans-51"/>
       <use x="63.623047" xlink:href="#DejaVuSans-53"/>
      </g>
     </g>
    </g>
    <g id="xtick_9">
     <g id="line2d_9">
      <g>
       <use style="stroke:#000000;stroke-width:0.8;" x="996.688783" xlink:href="#meff59ed4e7" y="511.9992"/>
      </g>
     </g>
     <g id="text_9">
      <!-- 40 -->
      <defs>
       <path d="M 37.796875 64.3125 
L 12.890625 25.390625 
L 37.796875 25.390625 
z
M 35.203125 72.90625 
L 47.609375 72.90625 
L 47.609375 25.390625 
L 58.015625 25.390625 
L 58.015625 17.1875 
L 47.609375 17.1875 
L 47.609375 0 
L 37.796875 0 
L 37.796875 17.1875 
L 4.890625 17.1875 
L 4.890625 26.703125 
z
" id="DejaVuSans-52"/>
      </defs>
      <g transform="translate(990.326283 526.597638)scale(0.1 -0.1)">
       <use xlink:href="#DejaVuSans-52"/>
       <use x="63.623047" xlink:href="#DejaVuSans-48"/>
      </g>
     </g>
    </g>
    <g id="text_10">
     <!-- epoches -->
     <defs>
      <path d="M 56.203125 29.59375 
L 56.203125 25.203125 
L 14.890625 25.203125 
Q 15.484375 15.921875 20.484375 11.0625 
Q 25.484375 6.203125 34.421875 6.203125 
Q 39.59375 6.203125 44.453125 7.46875 
Q 49.3125 8.734375 54.109375 11.28125 
L 54.109375 2.78125 
Q 49.265625 0.734375 44.1875 -0.34375 
Q 39.109375 -1.421875 33.890625 -1.421875 
Q 20.796875 -1.421875 13.15625 6.1875 
Q 5.515625 13.8125 5.515625 26.8125 
Q 5.515625 40.234375 12.765625 48.109375 
Q 20.015625 56 32.328125 56 
Q 43.359375 56 49.78125 48.890625 
Q 56.203125 41.796875 56.203125 29.59375 
z
M 47.21875 32.234375 
Q 47.125 39.59375 43.09375 43.984375 
Q 39.0625 48.390625 32.421875 48.390625 
Q 24.90625 48.390625 20.390625 44.140625 
Q 15.875 39.890625 15.1875 32.171875 
z
" id="DejaVuSans-101"/>
      <path d="M 18.109375 8.203125 
L 18.109375 -20.796875 
L 9.078125 -20.796875 
L 9.078125 54.6875 
L 18.109375 54.6875 
L 18.109375 46.390625 
Q 20.953125 51.265625 25.265625 53.625 
Q 29.59375 56 35.59375 56 
Q 45.5625 56 51.78125 48.09375 
Q 58.015625 40.1875 58.015625 27.296875 
Q 58.015625 14.40625 51.78125 6.484375 
Q 45.5625 -1.421875 35.59375 -1.421875 
Q 29.59375 -1.421875 25.265625 0.953125 
Q 20.953125 3.328125 18.109375 8.203125 
z
M 48.6875 27.296875 
Q 48.6875 37.203125 44.609375 42.84375 
Q 40.53125 48.484375 33.40625 48.484375 
Q 26.265625 48.484375 22.1875 42.84375 
Q 18.109375 37.203125 18.109375 27.296875 
Q 18.109375 17.390625 22.1875 11.75 
Q 26.265625 6.109375 33.40625 6.109375 
Q 40.53125 6.109375 44.609375 11.75 
Q 48.6875 17.390625 48.6875 27.296875 
z
" id="DejaVuSans-112"/>
      <path d="M 30.609375 48.390625 
Q 23.390625 48.390625 19.1875 42.75 
Q 14.984375 37.109375 14.984375 27.296875 
Q 14.984375 17.484375 19.15625 11.84375 
Q 23.34375 6.203125 30.609375 6.203125 
Q 37.796875 6.203125 41.984375 11.859375 
Q 46.1875 17.53125 46.1875 27.296875 
Q 46.1875 37.015625 41.984375 42.703125 
Q 37.796875 48.390625 30.609375 48.390625 
z
M 30.609375 56 
Q 42.328125 56 49.015625 48.375 
Q 55.71875 40.765625 55.71875 27.296875 
Q 55.71875 13.875 49.015625 6.21875 
Q 42.328125 -1.421875 30.609375 -1.421875 
Q 18.84375 -1.421875 12.171875 6.21875 
Q 5.515625 13.875 5.515625 27.296875 
Q 5.515625 40.765625 12.171875 48.375 
Q 18.84375 56 30.609375 56 
z
" id="DejaVuSans-111"/>
      <path d="M 48.78125 52.59375 
L 48.78125 44.1875 
Q 44.96875 46.296875 41.140625 47.34375 
Q 37.3125 48.390625 33.40625 48.390625 
Q 24.65625 48.390625 19.8125 42.84375 
Q 14.984375 37.3125 14.984375 27.296875 
Q 14.984375 17.28125 19.8125 11.734375 
Q 24.65625 6.203125 33.40625 6.203125 
Q 37.3125 6.203125 41.140625 7.25 
Q 44.96875 8.296875 48.78125 10.40625 
L 48.78125 2.09375 
Q 45.015625 0.34375 40.984375 -0.53125 
Q 36.96875 -1.421875 32.421875 -1.421875 
Q 20.0625 -1.421875 12.78125 6.34375 
Q 5.515625 14.109375 5.515625 27.296875 
Q 5.515625 40.671875 12.859375 48.328125 
Q 20.21875 56 33.015625 56 
Q 37.15625 56 41.109375 55.140625 
Q 45.0625 54.296875 48.78125 52.59375 
z
" id="DejaVuSans-99"/>
      <path d="M 54.890625 33.015625 
L 54.890625 0 
L 45.90625 0 
L 45.90625 32.71875 
Q 45.90625 40.484375 42.875 44.328125 
Q 39.84375 48.1875 33.796875 48.1875 
Q 26.515625 48.1875 22.3125 43.546875 
Q 18.109375 38.921875 18.109375 30.90625 
L 18.109375 0 
L 9.078125 0 
L 9.078125 75.984375 
L 18.109375 75.984375 
L 18.109375 46.1875 
Q 21.34375 51.125 25.703125 53.5625 
Q 30.078125 56 35.796875 56 
Q 45.21875 56 50.046875 50.171875 
Q 54.890625 44.34375 54.890625 33.015625 
z
" id="DejaVuSans-104"/>
      <path d="M 44.28125 53.078125 
L 44.28125 44.578125 
Q 40.484375 46.53125 36.375 47.5 
Q 32.28125 48.484375 27.875 48.484375 
Q 21.1875 48.484375 17.84375 46.4375 
Q 14.5 44.390625 14.5 40.28125 
Q 14.5 37.15625 16.890625 35.375 
Q 19.28125 33.59375 26.515625 31.984375 
L 29.59375 31.296875 
Q 39.15625 29.25 43.1875 25.515625 
Q 47.21875 21.78125 47.21875 15.09375 
Q 47.21875 7.46875 41.1875 3.015625 
Q 35.15625 -1.421875 24.609375 -1.421875 
Q 20.21875 -1.421875 15.453125 -0.5625 
Q 10.6875 0.296875 5.421875 2 
L 5.421875 11.28125 
Q 10.40625 8.6875 15.234375 7.390625 
Q 20.0625 6.109375 24.8125 6.109375 
Q 31.15625 6.109375 34.5625 8.28125 
Q 37.984375 10.453125 37.984375 14.40625 
Q 37.984375 18.0625 35.515625 20.015625 
Q 33.0625 21.96875 24.703125 23.78125 
L 21.578125 24.515625 
Q 13.234375 26.265625 9.515625 29.90625 
Q 5.8125 33.546875 5.8125 39.890625 
Q 5.8125 47.609375 11.28125 51.796875 
Q 16.75 56 26.8125 56 
Q 31.78125 56 36.171875 55.265625 
Q 40.578125 54.546875 44.28125 53.078125 
z
" id="DejaVuSans-115"/>
     </defs>
     <g transform="translate(557.682625 540.275762)scale(0.1 -0.1)">
      <use xlink:href="#DejaVuSans-101"/>
      <use x="61.523438" xlink:href="#DejaVuSans-112"/>
      <use x="125" xlink:href="#DejaVuSans-111"/>
      <use x="186.181641" xlink:href="#DejaVuSans-99"/>
      <use x="241.162109" xlink:href="#DejaVuSans-104"/>
      <use x="304.541016" xlink:href="#DejaVuSans-101"/>
      <use x="366.064453" xlink:href="#DejaVuSans-115"/>
     </g>
    </g>
   </g>
   <g id="matplotlib.axis_2">
    <g id="ytick_1">
     <g id="line2d_10">
      <defs>
       <path d="M 0 0 
L -3.5 0 
" id="m5c8c91d6f3" style="stroke:#000000;stroke-width:0.8;"/>
      </defs>
      <g>
       <use style="stroke:#000000;stroke-width:0.8;" x="141.12" xlink:href="#m5c8c91d6f3" y="501.420307"/>
      </g>
     </g>
     <g id="text_11">
      <!-- 0.0 -->
      <defs>
       <path d="M 10.6875 12.40625 
L 21 12.40625 
L 21 0 
L 10.6875 0 
z
" id="DejaVuSans-46"/>
      </defs>
      <g transform="translate(118.216875 505.219525)scale(0.1 -0.1)">
       <use xlink:href="#DejaVuSans-48"/>
       <use x="63.623047" xlink:href="#DejaVuSans-46"/>
       <use x="95.410156" xlink:href="#DejaVuSans-48"/>
      </g>
     </g>
    </g>
    <g id="ytick_2">
     <g id="line2d_11">
      <g>
       <use style="stroke:#000000;stroke-width:0.8;" x="141.12" xlink:href="#m5c8c91d6f3" y="418.210412"/>
      </g>
     </g>
     <g id="text_12">
      <!-- 0.2 -->
      <g transform="translate(118.216875 422.00963)scale(0.1 -0.1)">
       <use xlink:href="#DejaVuSans-48"/>
       <use x="63.623047" xlink:href="#DejaVuSans-46"/>
       <use x="95.410156" xlink:href="#DejaVuSans-50"/>
      </g>
     </g>
    </g>
    <g id="ytick_3">
     <g id="line2d_12">
      <g>
       <use style="stroke:#000000;stroke-width:0.8;" x="141.12" xlink:href="#m5c8c91d6f3" y="335.000517"/>
      </g>
     </g>
     <g id="text_13">
      <!-- 0.4 -->
      <g transform="translate(118.216875 338.799736)scale(0.1 -0.1)">
       <use xlink:href="#DejaVuSans-48"/>
       <use x="63.623047" xlink:href="#DejaVuSans-46"/>
       <use x="95.410156" xlink:href="#DejaVuSans-52"/>
      </g>
     </g>
    </g>
    <g id="ytick_4">
     <g id="line2d_13">
      <g>
       <use style="stroke:#000000;stroke-width:0.8;" x="141.12" xlink:href="#m5c8c91d6f3" y="251.790622"/>
      </g>
     </g>
     <g id="text_14">
      <!-- 0.6 -->
      <defs>
       <path d="M 33.015625 40.375 
Q 26.375 40.375 22.484375 35.828125 
Q 18.609375 31.296875 18.609375 23.390625 
Q 18.609375 15.53125 22.484375 10.953125 
Q 26.375 6.390625 33.015625 6.390625 
Q 39.65625 6.390625 43.53125 10.953125 
Q 47.40625 15.53125 47.40625 23.390625 
Q 47.40625 31.296875 43.53125 35.828125 
Q 39.65625 40.375 33.015625 40.375 
z
M 52.59375 71.296875 
L 52.59375 62.3125 
Q 48.875 64.0625 45.09375 64.984375 
Q 41.3125 65.921875 37.59375 65.921875 
Q 27.828125 65.921875 22.671875 59.328125 
Q 17.53125 52.734375 16.796875 39.40625 
Q 19.671875 43.65625 24.015625 45.921875 
Q 28.375 48.1875 33.59375 48.1875 
Q 44.578125 48.1875 50.953125 41.515625 
Q 57.328125 34.859375 57.328125 23.390625 
Q 57.328125 12.15625 50.6875 5.359375 
Q 44.046875 -1.421875 33.015625 -1.421875 
Q 20.359375 -1.421875 13.671875 8.265625 
Q 6.984375 17.96875 6.984375 36.375 
Q 6.984375 53.65625 15.1875 63.9375 
Q 23.390625 74.21875 37.203125 74.21875 
Q 40.921875 74.21875 44.703125 73.484375 
Q 48.484375 72.75 52.59375 71.296875 
z
" id="DejaVuSans-54"/>
      </defs>
      <g transform="translate(118.216875 255.589841)scale(0.1 -0.1)">
       <use xlink:href="#DejaVuSans-48"/>
       <use x="63.623047" xlink:href="#DejaVuSans-46"/>
       <use x="95.410156" xlink:href="#DejaVuSans-54"/>
      </g>
     </g>
    </g>
    <g id="ytick_5">
     <g id="line2d_14">
      <g>
       <use style="stroke:#000000;stroke-width:0.8;" x="141.12" xlink:href="#m5c8c91d6f3" y="168.580727"/>
      </g>
     </g>
     <g id="text_15">
      <!-- 0.8 -->
      <defs>
       <path d="M 31.78125 34.625 
Q 24.75 34.625 20.71875 30.859375 
Q 16.703125 27.09375 16.703125 20.515625 
Q 16.703125 13.921875 20.71875 10.15625 
Q 24.75 6.390625 31.78125 6.390625 
Q 38.8125 6.390625 42.859375 10.171875 
Q 46.921875 13.96875 46.921875 20.515625 
Q 46.921875 27.09375 42.890625 30.859375 
Q 38.875 34.625 31.78125 34.625 
z
M 21.921875 38.8125 
Q 15.578125 40.375 12.03125 44.71875 
Q 8.5 49.078125 8.5 55.328125 
Q 8.5 64.0625 14.71875 69.140625 
Q 20.953125 74.21875 31.78125 74.21875 
Q 42.671875 74.21875 48.875 69.140625 
Q 55.078125 64.0625 55.078125 55.328125 
Q 55.078125 49.078125 51.53125 44.71875 
Q 48 40.375 41.703125 38.8125 
Q 48.828125 37.15625 52.796875 32.3125 
Q 56.78125 27.484375 56.78125 20.515625 
Q 56.78125 9.90625 50.3125 4.234375 
Q 43.84375 -1.421875 31.78125 -1.421875 
Q 19.734375 -1.421875 13.25 4.234375 
Q 6.78125 9.90625 6.78125 20.515625 
Q 6.78125 27.484375 10.78125 32.3125 
Q 14.796875 37.15625 21.921875 38.8125 
z
M 18.3125 54.390625 
Q 18.3125 48.734375 21.84375 45.5625 
Q 25.390625 42.390625 31.78125 42.390625 
Q 38.140625 42.390625 41.71875 45.5625 
Q 45.3125 48.734375 45.3125 54.390625 
Q 45.3125 60.0625 41.71875 63.234375 
Q 38.140625 66.40625 31.78125 66.40625 
Q 25.390625 66.40625 21.84375 63.234375 
Q 18.3125 60.0625 18.3125 54.390625 
z
" id="DejaVuSans-56"/>
      </defs>
      <g transform="translate(118.216875 172.379946)scale(0.1 -0.1)">
       <use xlink:href="#DejaVuSans-48"/>
       <use x="63.623047" xlink:href="#DejaVuSans-46"/>
       <use x="95.410156" xlink:href="#DejaVuSans-56"/>
      </g>
     </g>
    </g>
    <g id="ytick_6">
     <g id="line2d_15">
      <g>
       <use style="stroke:#000000;stroke-width:0.8;" x="141.12" xlink:href="#m5c8c91d6f3" y="85.370832"/>
      </g>
     </g>
     <g id="text_16">
      <!-- 1.0 -->
      <g transform="translate(118.216875 89.170051)scale(0.1 -0.1)">
       <use xlink:href="#DejaVuSans-49"/>
       <use x="63.623047" xlink:href="#DejaVuSans-46"/>
       <use x="95.410156" xlink:href="#DejaVuSans-48"/>
      </g>
     </g>
    </g>
    <g id="text_17">
     <!-- metrics -->
     <defs>
      <path d="M 52 44.1875 
Q 55.375 50.25 60.0625 53.125 
Q 64.75 56 71.09375 56 
Q 79.640625 56 84.28125 50.015625 
Q 88.921875 44.046875 88.921875 33.015625 
L 88.921875 0 
L 79.890625 0 
L 79.890625 32.71875 
Q 79.890625 40.578125 77.09375 44.375 
Q 74.3125 48.1875 68.609375 48.1875 
Q 61.625 48.1875 57.5625 43.546875 
Q 53.515625 38.921875 53.515625 30.90625 
L 53.515625 0 
L 44.484375 0 
L 44.484375 32.71875 
Q 44.484375 40.625 41.703125 44.40625 
Q 38.921875 48.1875 33.109375 48.1875 
Q 26.21875 48.1875 22.15625 43.53125 
Q 18.109375 38.875 18.109375 30.90625 
L 18.109375 0 
L 9.078125 0 
L 9.078125 54.6875 
L 18.109375 54.6875 
L 18.109375 46.1875 
Q 21.1875 51.21875 25.484375 53.609375 
Q 29.78125 56 35.6875 56 
Q 41.65625 56 45.828125 52.96875 
Q 50 49.953125 52 44.1875 
z
" id="DejaVuSans-109"/>
      <path d="M 18.3125 70.21875 
L 18.3125 54.6875 
L 36.8125 54.6875 
L 36.8125 47.703125 
L 18.3125 47.703125 
L 18.3125 18.015625 
Q 18.3125 11.328125 20.140625 9.421875 
Q 21.96875 7.515625 27.59375 7.515625 
L 36.8125 7.515625 
L 36.8125 0 
L 27.59375 0 
Q 17.1875 0 13.234375 3.875 
Q 9.28125 7.765625 9.28125 18.015625 
L 9.28125 47.703125 
L 2.6875 47.703125 
L 2.6875 54.6875 
L 9.28125 54.6875 
L 9.28125 70.21875 
z
" id="DejaVuSans-116"/>
      <path d="M 41.109375 46.296875 
Q 39.59375 47.171875 37.8125 47.578125 
Q 36.03125 48 33.890625 48 
Q 26.265625 48 22.1875 43.046875 
Q 18.109375 38.09375 18.109375 28.8125 
L 18.109375 0 
L 9.078125 0 
L 9.078125 54.6875 
L 18.109375 54.6875 
L 18.109375 46.1875 
Q 20.953125 51.171875 25.484375 53.578125 
Q 30.03125 56 36.53125 56 
Q 37.453125 56 38.578125 55.875 
Q 39.703125 55.765625 41.0625 55.515625 
z
" id="DejaVuSans-114"/>
      <path d="M 9.421875 54.6875 
L 18.40625 54.6875 
L 18.40625 0 
L 9.421875 0 
z
M 9.421875 75.984375 
L 18.40625 75.984375 
L 18.40625 64.59375 
L 9.421875 64.59375 
z
" id="DejaVuSans-105"/>
     </defs>
     <g transform="translate(112.137187 309.221869)rotate(-90)scale(0.1 -0.1)">
      <use xlink:href="#DejaVuSans-109"/>
      <use x="97.412109" xlink:href="#DejaVuSans-101"/>
      <use x="158.935547" xlink:href="#DejaVuSans-116"/>
      <use x="198.144531" xlink:href="#DejaVuSans-114"/>
      <use x="239.257812" xlink:href="#DejaVuSans-105"/>
      <use x="267.041016" xlink:href="#DejaVuSans-99"/>
      <use x="322.021484" xlink:href="#DejaVuSans-115"/>
     </g>
    </g>
   </g>
   <g id="line2d_16">
    <path clip-path="url(#pa1e4698ad7)" d="M 180.890182 164.055776 
L 201.285147 119.324146 
L 221.680112 108.319259 
L 242.075077 106.571424 
L 262.470042 108.642932 
L 282.865007 106.895097 
L 303.259972 110.487869 
L 323.654937 106.895097 
L 344.049902 107.251137 
L 364.444867 108.157422 
L 384.839832 107.769014 
L 405.234797 108.481095 
L 425.629762 107.963218 
L 446.024727 108.740034 
L 466.419692 109.355013 
L 486.814657 108.448728 
L 507.209622 108.675299 
L 527.604587 109.257911 
L 547.999552 108.998972 
L 568.394517 108.416361 
L 588.789483 109.937624 
L 609.184448 109.160809 
L 629.579413 110.196563 
L 649.974378 109.678686 
L 670.369343 109.419747 
L 690.764308 109.03134 
L 711.159273 110.584971 
L 731.554238 109.160809 
L 751.949203 109.581584 
L 772.344168 109.581584 
L 792.739133 109.969992 
L 813.134098 109.160809 
L 833.529063 109.711053 
L 853.924028 109.452115 
L 874.318993 109.484482 
L 894.713958 109.419747 
L 915.108923 109.549217 
L 935.503888 109.419747 
L 955.898853 109.646319 
L 976.293818 109.646319 
" style="fill:none;stroke:#1f77b4;stroke-linecap:square;stroke-width:1.5;"/>
   </g>
   <g id="line2d_17">
    <path clip-path="url(#pa1e4698ad7)" d="M 180.890182 141.139717 
L 201.285147 112.88305 
L 221.680112 105.956445 
L 242.075077 105.4062 
L 262.470042 107.315872 
L 282.865007 106.150649 
L 303.259972 109.613951 
L 323.654937 105.988812 
L 344.049902 107.186403 
L 364.444867 107.380607 
L 384.839832 107.21877 
L 405.234797 107.736647 
L 425.629762 107.477708 
L 446.024727 108.157422 
L 466.419692 108.869503 
L 486.814657 108.092687 
L 507.209622 108.351626 
L 527.604587 108.707666 
L 547.999552 108.54583 
L 568.394517 108.092687 
L 588.789483 109.355013 
L 609.184448 108.610565 
L 629.579413 109.711053 
L 649.974378 109.128442 
L 670.369343 108.804768 
L 690.764308 108.513463 
L 711.159273 110.131828 
L 731.554238 108.610565 
L 751.949203 109.03134 
L 772.344168 108.966605 
L 792.739133 109.38738 
L 813.134098 108.416361 
L 833.529063 108.90187 
L 853.924028 108.837136 
L 874.318993 108.772401 
L 894.713958 108.675299 
L 915.108923 108.869503 
L 935.503888 108.772401 
L 955.898853 108.966605 
L 976.293818 108.934238 
" style="fill:none;stroke:#ff7f0e;stroke-linecap:square;stroke-width:1.5;"/>
   </g>
   <g id="line2d_18">
    <path clip-path="url(#pa1e4698ad7)" d="M 180.890182 491.8644 
L 201.285147 190.485805 
L 221.680112 213.272967 
L 242.075077 174.314271 
L 262.470042 171.373992 
L 282.865007 167.331108 
L 303.259972 146.749155 
L 323.654937 170.638922 
L 344.049902 169.168783 
L 364.444867 188.280596 
L 384.839832 165.125899 
L 405.234797 183.870178 
L 425.629762 169.903852 
L 446.024727 175.416875 
L 466.419692 169.168783 
L 486.814657 179.827294 
L 507.209622 177.98962 
L 527.604587 180.194829 
L 547.999552 152.629713 
L 568.394517 168.433713 
L 588.789483 163.288225 
L 609.184448 169.903852 
L 629.579413 197.836503 
L 649.974378 178.357154 
L 670.369343 166.963573 
L 690.764308 166.963573 
L 711.159273 162.18562 
L 731.554238 170.638922 
L 751.949203 166.596039 
L 772.344168 166.596039 
L 792.739133 161.818085 
L 813.134098 176.151945 
L 833.529063 167.698643 
L 853.924028 166.596039 
L 874.318993 165.125899 
L 894.713958 166.228504 
L 915.108923 168.433713 
L 935.503888 168.066178 
L 955.898853 167.331108 
L 976.293818 168.066178 
" style="fill:none;stroke:#2ca02c;stroke-linecap:square;stroke-width:1.5;"/>
   </g>
   <g id="line2d_19">
    <path clip-path="url(#pa1e4698ad7)" d="M 180.890182 491.12933 
L 201.285147 183.870178 
L 221.680112 175.416875 
L 242.075077 164.023294 
L 262.470042 155.202458 
L 282.865007 159.980411 
L 303.259972 147.484225 
L 323.654937 165.860969 
L 344.049902 164.023294 
L 364.444867 186.075387 
L 384.839832 159.245341 
L 405.234797 179.459759 
L 425.629762 168.433713 
L 446.024727 174.314271 
L 466.419692 168.433713 
L 486.814657 177.25455 
L 507.209622 176.887015 
L 527.604587 178.724689 
L 547.999552 154.834923 
L 568.394517 168.433713 
L 588.789483 162.18562 
L 609.184448 169.536318 
L 629.579413 195.998828 
L 649.974378 175.049341 
L 670.369343 166.963573 
L 690.764308 168.066178 
L 711.159273 162.92069 
L 731.554238 169.903852 
L 751.949203 166.963573 
L 772.344168 166.963573 
L 792.739133 162.553155 
L 813.134098 175.78441 
L 833.529063 166.963573 
L 853.924028 166.228504 
L 874.318993 164.758364 
L 894.713958 165.125899 
L 915.108923 167.331108 
L 935.503888 167.331108 
L 955.898853 166.963573 
L 976.293818 167.698643 
" style="fill:none;stroke:#d62728;stroke-linecap:square;stroke-width:1.5;"/>
   </g>
   <g id="line2d_20">
    <path clip-path="url(#pa1e4698ad7)" d="M 180.890182 487.125659 
L 201.285147 464.555163 
L 221.680112 222.298507 
L 242.075077 241.107254 
L 262.470042 177.157515 
L 282.865007 220.041458 
L 303.259972 237.345504 
L 323.654937 245.621353 
L 344.049902 224.555557 
L 364.444867 282.486496 
L 384.839832 235.088455 
L 405.234797 266.687149 
L 425.629762 271.201248 
L 446.024727 264.4301 
L 466.419692 261.4207 
L 486.814657 253.144852 
L 507.209622 268.191849 
L 527.604587 269.696549 
L 547.999552 238.850204 
L 568.394517 258.411301 
L 588.789483 241.107254 
L 609.184448 272.705948 
L 629.579413 294.524094 
L 649.974378 265.934799 
L 670.369343 284.743546 
L 690.764308 270.448898 
L 711.159273 256.154251 
L 731.554238 275.715347 
L 751.949203 268.944199 
L 772.344168 265.182449 
L 792.739133 262.17305 
L 813.134098 290.762345 
L 833.529063 274.210648 
L 853.924028 267.439499 
L 874.318993 266.687149 
L 894.713958 267.439499 
L 915.108923 268.191849 
L 935.503888 270.448898 
L 955.898853 268.191849 
L 976.293818 270.448898 
" style="fill:none;stroke:#9467bd;stroke-linecap:square;stroke-width:1.5;"/>
   </g>
   <g id="line2d_21">
    <path clip-path="url(#pa1e4698ad7)" d="M 180.890182 484.86861 
L 201.285147 399.100725 
L 221.680112 276.467697 
L 242.075077 262.17305 
L 262.470042 201.985061 
L 282.865007 242.611953 
L 303.259972 237.345504 
L 323.654937 256.154251 
L 344.049902 251.640152 
L 364.444867 288.505295 
L 384.839832 252.392502 
L 405.234797 278.724747 
L 425.629762 280.981797 
L 446.024727 273.458298 
L 466.419692 271.201248 
L 486.814657 269.696549 
L 507.209622 280.981797 
L 527.604587 279.477097 
L 547.999552 242.611953 
L 568.394517 270.448898 
L 588.789483 247.126053 
L 609.184448 280.981797 
L 629.579413 306.561692 
L 649.974378 278.724747 
L 670.369343 290.762345 
L 690.764308 273.458298 
L 711.159273 261.4207 
L 731.554238 282.486496 
L 751.949203 274.210648 
L 772.344168 268.944199 
L 792.739133 264.4301 
L 813.134098 293.771744 
L 833.529063 274.962998 
L 853.924028 271.201248 
L 874.318993 268.191849 
L 894.713958 269.696549 
L 915.108923 271.953598 
L 935.503888 274.210648 
L 955.898853 270.448898 
L 976.293818 271.953598 
" style="fill:none;stroke:#8c564b;stroke-linecap:square;stroke-width:1.5;"/>
   </g>
   <g id="line2d_22">
    <path clip-path="url(#pa1e4698ad7)" d="M 180.890182 89.1684 
L 201.285147 92.491272 
L 221.680112 91.282955 
L 242.075077 92.707043 
L 262.470042 99.741175 
L 282.865007 95.296294 
L 303.259972 101.683113 
L 323.654937 93.613281 
L 344.049902 95.684682 
L 364.444867 91.239801 
L 384.839832 96.245686 
L 405.234797 93.052276 
L 425.629762 93.872206 
L 446.024727 94.519519 
L 466.419692 96.28884 
L 486.814657 94.303748 
L 507.209622 94.044823 
L 527.604587 94.390056 
L 547.999552 99.093862 
L 568.394517 95.296294 
L 588.789483 99.050708 
L 609.184448 95.25314 
L 629.579413 92.146039 
L 649.974378 95.425756 
L 670.369343 95.25314 
L 690.764308 95.727836 
L 711.159273 99.18017 
L 731.554238 95.123677 
L 751.949203 96.504611 
L 772.344168 96.720382 
L 792.739133 98.058162 
L 813.134098 93.526972 
L 833.529063 96.28884 
L 853.924028 96.504611 
L 874.318993 96.763536 
L 894.713958 96.504611 
L 915.108923 96.375148 
L 935.503888 96.116223 
L 955.898853 96.634074 
L 976.293818 96.418303 
" style="fill:none;stroke:#e377c2;stroke-linecap:square;stroke-width:1.5;"/>
   </g>
   <g id="line2d_23">
    <path clip-path="url(#pa1e4698ad7)" d="M 180.890182 89.1684 
L 201.285147 92.491272 
L 221.680112 91.282955 
L 242.075077 92.707043 
L 262.470042 99.741175 
L 282.865007 95.296294 
L 303.259972 101.683113 
L 323.654937 93.613281 
L 344.049902 95.684682 
L 364.444867 91.239801 
L 384.839832 96.245686 
L 405.234797 93.052276 
L 425.629762 93.872206 
L 446.024727 94.519519 
L 466.419692 96.28884 
L 486.814657 94.303748 
L 507.209622 94.044823 
L 527.604587 94.390056 
L 547.999552 99.093862 
L 568.394517 95.296294 
L 588.789483 99.050708 
L 609.184448 95.25314 
L 629.579413 92.146039 
L 649.974378 95.425756 
L 670.369343 95.25314 
L 690.764308 95.727836 
L 711.159273 99.18017 
L 731.554238 95.123677 
L 751.949203 96.504611 
L 772.344168 96.720382 
L 792.739133 98.058162 
L 813.134098 93.526972 
L 833.529063 96.28884 
L 853.924028 96.504611 
L 874.318993 96.763536 
L 894.713958 96.504611 
L 915.108923 96.375148 
L 935.503888 96.116223 
L 955.898853 96.634074 
L 976.293818 96.418303 
" style="fill:none;stroke:#7f7f7f;stroke-linecap:square;stroke-width:1.5;"/>
   </g>
   <g id="patch_3">
    <path d="M 141.12 511.9992 
L 141.12 69.0336 
" style="fill:none;stroke:#000000;stroke-linecap:square;stroke-linejoin:miter;stroke-width:0.8;"/>
   </g>
   <g id="patch_4">
    <path d="M 1016.064 511.9992 
L 1016.064 69.0336 
" style="fill:none;stroke:#000000;stroke-linecap:square;stroke-linejoin:miter;stroke-width:0.8;"/>
   </g>
   <g id="patch_5">
    <path d="M 141.12 511.9992 
L 1016.064 511.9992 
" style="fill:none;stroke:#000000;stroke-linecap:square;stroke-linejoin:miter;stroke-width:0.8;"/>
   </g>
   <g id="patch_6">
    <path d="M 141.12 69.0336 
L 1016.064 69.0336 
" style="fill:none;stroke:#000000;stroke-linecap:square;stroke-linejoin:miter;stroke-width:0.8;"/>
   </g>
   <g id="text_18">
    <!-- Courbes compartives des rappels -->
    <defs>
     <path d="M 64.40625 67.28125 
L 64.40625 56.890625 
Q 59.421875 61.53125 53.78125 63.8125 
Q 48.140625 66.109375 41.796875 66.109375 
Q 29.296875 66.109375 22.65625 58.46875 
Q 16.015625 50.828125 16.015625 36.375 
Q 16.015625 21.96875 22.65625 14.328125 
Q 29.296875 6.6875 41.796875 6.6875 
Q 48.140625 6.6875 53.78125 8.984375 
Q 59.421875 11.28125 64.40625 15.921875 
L 64.40625 5.609375 
Q 59.234375 2.09375 53.4375 0.328125 
Q 47.65625 -1.421875 41.21875 -1.421875 
Q 24.65625 -1.421875 15.125 8.703125 
Q 5.609375 18.84375 5.609375 36.375 
Q 5.609375 53.953125 15.125 64.078125 
Q 24.65625 74.21875 41.21875 74.21875 
Q 47.75 74.21875 53.53125 72.484375 
Q 59.328125 70.75 64.40625 67.28125 
z
" id="DejaVuSans-67"/>
     <path d="M 8.5 21.578125 
L 8.5 54.6875 
L 17.484375 54.6875 
L 17.484375 21.921875 
Q 17.484375 14.15625 20.5 10.265625 
Q 23.53125 6.390625 29.59375 6.390625 
Q 36.859375 6.390625 41.078125 11.03125 
Q 45.3125 15.671875 45.3125 23.6875 
L 45.3125 54.6875 
L 54.296875 54.6875 
L 54.296875 0 
L 45.3125 0 
L 45.3125 8.40625 
Q 42.046875 3.421875 37.71875 1 
Q 33.40625 -1.421875 27.6875 -1.421875 
Q 18.265625 -1.421875 13.375 4.4375 
Q 8.5 10.296875 8.5 21.578125 
z
M 31.109375 56 
z
" id="DejaVuSans-117"/>
     <path d="M 48.6875 27.296875 
Q 48.6875 37.203125 44.609375 42.84375 
Q 40.53125 48.484375 33.40625 48.484375 
Q 26.265625 48.484375 22.1875 42.84375 
Q 18.109375 37.203125 18.109375 27.296875 
Q 18.109375 17.390625 22.1875 11.75 
Q 26.265625 6.109375 33.40625 6.109375 
Q 40.53125 6.109375 44.609375 11.75 
Q 48.6875 17.390625 48.6875 27.296875 
z
M 18.109375 46.390625 
Q 20.953125 51.265625 25.265625 53.625 
Q 29.59375 56 35.59375 56 
Q 45.5625 56 51.78125 48.09375 
Q 58.015625 40.1875 58.015625 27.296875 
Q 58.015625 14.40625 51.78125 6.484375 
Q 45.5625 -1.421875 35.59375 -1.421875 
Q 29.59375 -1.421875 25.265625 0.953125 
Q 20.953125 3.328125 18.109375 8.203125 
L 18.109375 0 
L 9.078125 0 
L 9.078125 75.984375 
L 18.109375 75.984375 
z
" id="DejaVuSans-98"/>
     <path id="DejaVuSans-32"/>
     <path d="M 34.28125 27.484375 
Q 23.390625 27.484375 19.1875 25 
Q 14.984375 22.515625 14.984375 16.5 
Q 14.984375 11.71875 18.140625 8.90625 
Q 21.296875 6.109375 26.703125 6.109375 
Q 34.1875 6.109375 38.703125 11.40625 
Q 43.21875 16.703125 43.21875 25.484375 
L 43.21875 27.484375 
z
M 52.203125 31.203125 
L 52.203125 0 
L 43.21875 0 
L 43.21875 8.296875 
Q 40.140625 3.328125 35.546875 0.953125 
Q 30.953125 -1.421875 24.3125 -1.421875 
Q 15.921875 -1.421875 10.953125 3.296875 
Q 6 8.015625 6 15.921875 
Q 6 25.140625 12.171875 29.828125 
Q 18.359375 34.515625 30.609375 34.515625 
L 43.21875 34.515625 
L 43.21875 35.40625 
Q 43.21875 41.609375 39.140625 45 
Q 35.0625 48.390625 27.6875 48.390625 
Q 23 48.390625 18.546875 47.265625 
Q 14.109375 46.140625 10.015625 43.890625 
L 10.015625 52.203125 
Q 14.9375 54.109375 19.578125 55.046875 
Q 24.21875 56 28.609375 56 
Q 40.484375 56 46.34375 49.84375 
Q 52.203125 43.703125 52.203125 31.203125 
z
" id="DejaVuSans-97"/>
     <path d="M 2.984375 54.6875 
L 12.5 54.6875 
L 29.59375 8.796875 
L 46.6875 54.6875 
L 56.203125 54.6875 
L 35.6875 0 
L 23.484375 0 
z
" id="DejaVuSans-118"/>
     <path d="M 45.40625 46.390625 
L 45.40625 75.984375 
L 54.390625 75.984375 
L 54.390625 0 
L 45.40625 0 
L 45.40625 8.203125 
Q 42.578125 3.328125 38.25 0.953125 
Q 33.9375 -1.421875 27.875 -1.421875 
Q 17.96875 -1.421875 11.734375 6.484375 
Q 5.515625 14.40625 5.515625 27.296875 
Q 5.515625 40.1875 11.734375 48.09375 
Q 17.96875 56 27.875 56 
Q 33.9375 56 38.25 53.625 
Q 42.578125 51.265625 45.40625 46.390625 
z
M 14.796875 27.296875 
Q 14.796875 17.390625 18.875 11.75 
Q 22.953125 6.109375 30.078125 6.109375 
Q 37.203125 6.109375 41.296875 11.75 
Q 45.40625 17.390625 45.40625 27.296875 
Q 45.40625 37.203125 41.296875 42.84375 
Q 37.203125 48.484375 30.078125 48.484375 
Q 22.953125 48.484375 18.875 42.84375 
Q 14.796875 37.203125 14.796875 27.296875 
z
" id="DejaVuSans-100"/>
     <path d="M 9.421875 75.984375 
L 18.40625 75.984375 
L 18.40625 0 
L 9.421875 0 
z
" id="DejaVuSans-108"/>
    </defs>
    <g transform="translate(478.087313 63.0336)scale(0.12 -0.12)">
     <use xlink:href="#DejaVuSans-67"/>
     <use x="69.824219" xlink:href="#DejaVuSans-111"/>
     <use x="131.005859" xlink:href="#DejaVuSans-117"/>
     <use x="194.384766" xlink:href="#DejaVuSans-114"/>
     <use x="235.498047" xlink:href="#DejaVuSans-98"/>
     <use x="298.974609" xlink:href="#DejaVuSans-101"/>
     <use x="360.498047" xlink:href="#DejaVuSans-115"/>
     <use x="412.597656" xlink:href="#DejaVuSans-32"/>
     <use x="444.384766" xlink:href="#DejaVuSans-99"/>
     <use x="499.365234" xlink:href="#DejaVuSans-111"/>
     <use x="560.546875" xlink:href="#DejaVuSans-109"/>
     <use x="657.958984" xlink:href="#DejaVuSans-112"/>
     <use x="721.435547" xlink:href="#DejaVuSans-97"/>
     <use x="782.714844" xlink:href="#DejaVuSans-114"/>
     <use x="823.828125" xlink:href="#DejaVuSans-116"/>
     <use x="863.037109" xlink:href="#DejaVuSans-105"/>
     <use x="890.820312" xlink:href="#DejaVuSans-118"/>
     <use x="950" xlink:href="#DejaVuSans-101"/>
     <use x="1011.523438" xlink:href="#DejaVuSans-115"/>
     <use x="1063.623047" xlink:href="#DejaVuSans-32"/>
     <use x="1095.410156" xlink:href="#DejaVuSans-100"/>
     <use x="1158.886719" xlink:href="#DejaVuSans-101"/>
     <use x="1220.410156" xlink:href="#DejaVuSans-115"/>
     <use x="1272.509766" xlink:href="#DejaVuSans-32"/>
     <use x="1304.296875" xlink:href="#DejaVuSans-114"/>
     <use x="1345.410156" xlink:href="#DejaVuSans-97"/>
     <use x="1406.689453" xlink:href="#DejaVuSans-112"/>
     <use x="1470.166016" xlink:href="#DejaVuSans-112"/>
     <use x="1533.642578" xlink:href="#DejaVuSans-101"/>
     <use x="1595.166016" xlink:href="#DejaVuSans-108"/>
     <use x="1622.949219" xlink:href="#DejaVuSans-115"/>
    </g>
   </g>
   <g id="legend_1">
    <g id="patch_7">
     <path d="M 929.362438 506.9992 
L 1009.064 506.9992 
Q 1011.064 506.9992 1011.064 504.9992 
L 1011.064 388.5742 
Q 1011.064 386.5742 1009.064 386.5742 
L 929.362438 386.5742 
Q 927.362438 386.5742 927.362438 388.5742 
L 927.362438 504.9992 
Q 927.362438 506.9992 929.362438 506.9992 
z
" style="fill:#ffffff;opacity:0.8;stroke:#cccccc;stroke-linejoin:miter;"/>
    </g>
    <g id="line2d_24">
     <path d="M 931.362438 394.672638 
L 951.362438 394.672638 
" style="fill:none;stroke:#1f77b4;stroke-linecap:square;stroke-width:1.5;"/>
    </g>
    <g id="line2d_25"/>
    <g id="text_19">
     <!-- G recall -->
     <defs>
      <path d="M 59.515625 10.40625 
L 59.515625 29.984375 
L 43.40625 29.984375 
L 43.40625 38.09375 
L 69.28125 38.09375 
L 69.28125 6.78125 
Q 63.578125 2.734375 56.6875 0.65625 
Q 49.8125 -1.421875 42 -1.421875 
Q 24.90625 -1.421875 15.25 8.5625 
Q 5.609375 18.5625 5.609375 36.375 
Q 5.609375 54.25 15.25 64.234375 
Q 24.90625 74.21875 42 74.21875 
Q 49.125 74.21875 55.546875 72.453125 
Q 61.96875 70.703125 67.390625 67.28125 
L 67.390625 56.78125 
Q 61.921875 61.421875 55.765625 63.765625 
Q 49.609375 66.109375 42.828125 66.109375 
Q 29.4375 66.109375 22.71875 58.640625 
Q 16.015625 51.171875 16.015625 36.375 
Q 16.015625 21.625 22.71875 14.15625 
Q 29.4375 6.6875 42.828125 6.6875 
Q 48.046875 6.6875 52.140625 7.59375 
Q 56.25 8.5 59.515625 10.40625 
z
" id="DejaVuSans-71"/>
     </defs>
     <g transform="translate(959.362438 398.172638)scale(0.1 -0.1)">
      <use xlink:href="#DejaVuSans-71"/>
      <use x="77.490234" xlink:href="#DejaVuSans-32"/>
      <use x="109.277344" xlink:href="#DejaVuSans-114"/>
      <use x="150.359375" xlink:href="#DejaVuSans-101"/>
      <use x="211.882812" xlink:href="#DejaVuSans-99"/>
      <use x="266.863281" xlink:href="#DejaVuSans-97"/>
      <use x="328.142578" xlink:href="#DejaVuSans-108"/>
      <use x="355.925781" xlink:href="#DejaVuSans-108"/>
     </g>
    </g>
    <g id="line2d_26">
     <path d="M 931.362438 409.350763 
L 951.362438 409.350763 
" style="fill:none;stroke:#ff7f0e;stroke-linecap:square;stroke-width:1.5;"/>
    </g>
    <g id="line2d_27"/>
    <g id="text_20">
     <!-- G recall P -->
     <defs>
      <path d="M 19.671875 64.796875 
L 19.671875 37.40625 
L 32.078125 37.40625 
Q 38.96875 37.40625 42.71875 40.96875 
Q 46.484375 44.53125 46.484375 51.125 
Q 46.484375 57.671875 42.71875 61.234375 
Q 38.96875 64.796875 32.078125 64.796875 
z
M 9.8125 72.90625 
L 32.078125 72.90625 
Q 44.34375 72.90625 50.609375 67.359375 
Q 56.890625 61.8125 56.890625 51.125 
Q 56.890625 40.328125 50.609375 34.8125 
Q 44.34375 29.296875 32.078125 29.296875 
L 19.671875 29.296875 
L 19.671875 0 
L 9.8125 0 
z
" id="DejaVuSans-80"/>
     </defs>
     <g transform="translate(959.362438 412.850763)scale(0.1 -0.1)">
      <use xlink:href="#DejaVuSans-71"/>
      <use x="77.490234" xlink:href="#DejaVuSans-32"/>
      <use x="109.277344" xlink:href="#DejaVuSans-114"/>
      <use x="150.359375" xlink:href="#DejaVuSans-101"/>
      <use x="211.882812" xlink:href="#DejaVuSans-99"/>
      <use x="266.863281" xlink:href="#DejaVuSans-97"/>
      <use x="328.142578" xlink:href="#DejaVuSans-108"/>
      <use x="355.925781" xlink:href="#DejaVuSans-108"/>
      <use x="383.708984" xlink:href="#DejaVuSans-32"/>
      <use x="415.496094" xlink:href="#DejaVuSans-80"/>
     </g>
    </g>
    <g id="line2d_28">
     <path d="M 931.362438 424.028887 
L 951.362438 424.028887 
" style="fill:none;stroke:#2ca02c;stroke-linecap:square;stroke-width:1.5;"/>
    </g>
    <g id="line2d_29"/>
    <g id="text_21">
     <!-- B recall -->
     <defs>
      <path d="M 19.671875 34.8125 
L 19.671875 8.109375 
L 35.5 8.109375 
Q 43.453125 8.109375 47.28125 11.40625 
Q 51.125 14.703125 51.125 21.484375 
Q 51.125 28.328125 47.28125 31.5625 
Q 43.453125 34.8125 35.5 34.8125 
z
M 19.671875 64.796875 
L 19.671875 42.828125 
L 34.28125 42.828125 
Q 41.5 42.828125 45.03125 45.53125 
Q 48.578125 48.25 48.578125 53.8125 
Q 48.578125 59.328125 45.03125 62.0625 
Q 41.5 64.796875 34.28125 64.796875 
z
M 9.8125 72.90625 
L 35.015625 72.90625 
Q 46.296875 72.90625 52.390625 68.21875 
Q 58.5 63.53125 58.5 54.890625 
Q 58.5 48.1875 55.375 44.234375 
Q 52.25 40.28125 46.1875 39.3125 
Q 53.46875 37.75 57.5 32.78125 
Q 61.53125 27.828125 61.53125 20.40625 
Q 61.53125 10.640625 54.890625 5.3125 
Q 48.25 0 35.984375 0 
L 9.8125 0 
z
" id="DejaVuSans-66"/>
     </defs>
     <g transform="translate(959.362438 427.528887)scale(0.1 -0.1)">
      <use xlink:href="#DejaVuSans-66"/>
      <use x="68.603516" xlink:href="#DejaVuSans-32"/>
      <use x="100.390625" xlink:href="#DejaVuSans-114"/>
      <use x="141.472656" xlink:href="#DejaVuSans-101"/>
      <use x="202.996094" xlink:href="#DejaVuSans-99"/>
      <use x="257.976562" xlink:href="#DejaVuSans-97"/>
      <use x="319.255859" xlink:href="#DejaVuSans-108"/>
      <use x="347.039062" xlink:href="#DejaVuSans-108"/>
     </g>
    </g>
    <g id="line2d_30">
     <path d="M 931.362438 438.707013 
L 951.362438 438.707013 
" style="fill:none;stroke:#d62728;stroke-linecap:square;stroke-width:1.5;"/>
    </g>
    <g id="line2d_31"/>
    <g id="text_22">
     <!-- B recall p -->
     <g transform="translate(959.362438 442.207013)scale(0.1 -0.1)">
      <use xlink:href="#DejaVuSans-66"/>
      <use x="68.603516" xlink:href="#DejaVuSans-32"/>
      <use x="100.390625" xlink:href="#DejaVuSans-114"/>
      <use x="141.472656" xlink:href="#DejaVuSans-101"/>
      <use x="202.996094" xlink:href="#DejaVuSans-99"/>
      <use x="257.976562" xlink:href="#DejaVuSans-97"/>
      <use x="319.255859" xlink:href="#DejaVuSans-108"/>
      <use x="347.039062" xlink:href="#DejaVuSans-108"/>
      <use x="374.822266" xlink:href="#DejaVuSans-32"/>
      <use x="406.609375" xlink:href="#DejaVuSans-112"/>
     </g>
    </g>
    <g id="line2d_32">
     <path d="M 931.362438 453.385138 
L 951.362438 453.385138 
" style="fill:none;stroke:#9467bd;stroke-linecap:square;stroke-width:1.5;"/>
    </g>
    <g id="line2d_33"/>
    <g id="text_23">
     <!-- I recall -->
     <defs>
      <path d="M 9.8125 72.90625 
L 19.671875 72.90625 
L 19.671875 0 
L 9.8125 0 
z
" id="DejaVuSans-73"/>
     </defs>
     <g transform="translate(959.362438 456.885138)scale(0.1 -0.1)">
      <use xlink:href="#DejaVuSans-73"/>
      <use x="29.492188" xlink:href="#DejaVuSans-32"/>
      <use x="61.279297" xlink:href="#DejaVuSans-114"/>
      <use x="102.361328" xlink:href="#DejaVuSans-101"/>
      <use x="163.884766" xlink:href="#DejaVuSans-99"/>
      <use x="218.865234" xlink:href="#DejaVuSans-97"/>
      <use x="280.144531" xlink:href="#DejaVuSans-108"/>
      <use x="307.927734" xlink:href="#DejaVuSans-108"/>
     </g>
    </g>
    <g id="line2d_34">
     <path d="M 931.362438 468.063263 
L 951.362438 468.063263 
" style="fill:none;stroke:#8c564b;stroke-linecap:square;stroke-width:1.5;"/>
    </g>
    <g id="line2d_35"/>
    <g id="text_24">
     <!-- I recall p -->
     <g transform="translate(959.362438 471.563263)scale(0.1 -0.1)">
      <use xlink:href="#DejaVuSans-73"/>
      <use x="29.492188" xlink:href="#DejaVuSans-32"/>
      <use x="61.279297" xlink:href="#DejaVuSans-114"/>
      <use x="102.361328" xlink:href="#DejaVuSans-101"/>
      <use x="163.884766" xlink:href="#DejaVuSans-99"/>
      <use x="218.865234" xlink:href="#DejaVuSans-97"/>
      <use x="280.144531" xlink:href="#DejaVuSans-108"/>
      <use x="307.927734" xlink:href="#DejaVuSans-108"/>
      <use x="335.710938" xlink:href="#DejaVuSans-32"/>
      <use x="367.498047" xlink:href="#DejaVuSans-112"/>
     </g>
    </g>
    <g id="line2d_36">
     <path d="M 931.362438 482.741387 
L 951.362438 482.741387 
" style="fill:none;stroke:#e377c2;stroke-linecap:square;stroke-width:1.5;"/>
    </g>
    <g id="line2d_37"/>
    <g id="text_25">
     <!-- O recall -->
     <defs>
      <path d="M 39.40625 66.21875 
Q 28.65625 66.21875 22.328125 58.203125 
Q 16.015625 50.203125 16.015625 36.375 
Q 16.015625 22.609375 22.328125 14.59375 
Q 28.65625 6.59375 39.40625 6.59375 
Q 50.140625 6.59375 56.421875 14.59375 
Q 62.703125 22.609375 62.703125 36.375 
Q 62.703125 50.203125 56.421875 58.203125 
Q 50.140625 66.21875 39.40625 66.21875 
z
M 39.40625 74.21875 
Q 54.734375 74.21875 63.90625 63.9375 
Q 73.09375 53.65625 73.09375 36.375 
Q 73.09375 19.140625 63.90625 8.859375 
Q 54.734375 -1.421875 39.40625 -1.421875 
Q 24.03125 -1.421875 14.8125 8.828125 
Q 5.609375 19.09375 5.609375 36.375 
Q 5.609375 53.65625 14.8125 63.9375 
Q 24.03125 74.21875 39.40625 74.21875 
z
" id="DejaVuSans-79"/>
     </defs>
     <g transform="translate(959.362438 486.241387)scale(0.1 -0.1)">
      <use xlink:href="#DejaVuSans-79"/>
      <use x="78.710938" xlink:href="#DejaVuSans-32"/>
      <use x="110.498047" xlink:href="#DejaVuSans-114"/>
      <use x="151.580078" xlink:href="#DejaVuSans-101"/>
      <use x="213.103516" xlink:href="#DejaVuSans-99"/>
      <use x="268.083984" xlink:href="#DejaVuSans-97"/>
      <use x="329.363281" xlink:href="#DejaVuSans-108"/>
      <use x="357.146484" xlink:href="#DejaVuSans-108"/>
     </g>
    </g>
    <g id="line2d_38">
     <path d="M 931.362438 497.419512 
L 951.362438 497.419512 
" style="fill:none;stroke:#7f7f7f;stroke-linecap:square;stroke-width:1.5;"/>
    </g>
    <g id="line2d_39"/>
    <g id="text_26">
     <!-- O recall P -->
     <g transform="translate(959.362438 500.919512)scale(0.1 -0.1)">
      <use xlink:href="#DejaVuSans-79"/>
      <use x="78.710938" xlink:href="#DejaVuSans-32"/>
      <use x="110.498047" xlink:href="#DejaVuSans-114"/>
      <use x="151.580078" xlink:href="#DejaVuSans-101"/>
      <use x="213.103516" xlink:href="#DejaVuSans-99"/>
      <use x="268.083984" xlink:href="#DejaVuSans-97"/>
      <use x="329.363281" xlink:href="#DejaVuSans-108"/>
      <use x="357.146484" xlink:href="#DejaVuSans-108"/>
      <use x="384.929688" xlink:href="#DejaVuSans-32"/>
      <use x="416.716797" xlink:href="#DejaVuSans-80"/>
     </g>
    </g>
   </g>
  </g>
 </g>
 <defs>
  <clipPath id="pa1e4698ad7">
   <rect height="442.9656" width="874.944" x="141.12" y="69.0336"/>
  </clipPath>
 </defs>
</svg>
